<svg id="Filled" height="512" viewBox="0 0 512 512" width="512" xmlns="http://www.w3.org/2000/svg"><path d="m384 40v432l-16 16-16-16-16 16-16-16-16 16-16-16-16 16-16-16-16 16-16-16-16 16-16-16-16 16-16-16-16 16-16-16v-432l16-16 16 16 16-16 16 16 16-16 16 16 16-16 16 16 16-16 16 16 16-16 16 16 16-16 16 16 16-16z" fill="#e9eef2"/><path d="m168 96h80v32h-80z" fill="#b6b9ba"/><path d="m362.343 18.343-10.343 10.344-10.343-10.344a8 8 0 0 0 -11.314 0l-10.343 10.344-10.343-10.344a8 8 0 0 0 -11.314 0l-10.343 10.344-10.343-10.344a8 8 0 0 0 -11.314 0l-10.343 10.344-10.343-10.344a8 8 0 0 0 -11.314 0l-10.343 10.344-10.343-10.344a8 8 0 0 0 -11.314 0l-10.343 10.344-10.343-10.344a8 8 0 0 0 -11.314 0l-10.343 10.344-10.343-10.344a8 8 0 0 0 -11.314 0l-16 16a8 8 0 0 0 -2.343 5.657v432a7.979 7.979 0 0 0 2.343 5.662l16 16a8 8 0 0 0 11.314 0l10.343-10.349 10.343 10.344a8 8 0 0 0 11.314 0l10.343-10.344 10.343 10.344a8 8 0 0 0 11.314 0l10.343-10.344 10.343 10.344a8 8 0 0 0 11.314 0l10.343-10.344 10.343 10.344a8 8 0 0 0 11.314 0l10.343-10.344 10.343 10.344a8 8 0 0 0 11.314 0l10.343-10.344 10.343 10.344a8 8 0 0 0 11.314 0l10.343-10.344 10.343 10.344a8 8 0 0 0 11.314 0l16-16a8 8 0 0 0 2.343-5.657v-431.995a7.979 7.979 0 0 0 -2.343-5.662l-16-16a8 8 0 0 0 -11.314 0zm13.657 450.344-8 8-10.343-10.344a8 8 0 0 0 -11.314 0l-10.343 10.344-10.343-10.344a8 8 0 0 0 -11.314 0l-10.343 10.344-10.343-10.344a8 8 0 0 0 -11.314 0l-10.343 10.344-10.343-10.344a8 8 0 0 0 -11.314 0l-10.343 10.344-10.343-10.344a8 8 0 0 0 -11.314 0l-10.343 10.344-10.343-10.344a8 8 0 0 0 -11.314 0l-10.343 10.344-10.343-10.344a8 8 0 0 0 -11.314 0l-10.343 10.344-8-8v-425.374l8-8 10.343 10.344a8 8 0 0 0 11.314 0l10.343-10.344 10.343 10.344a8 8 0 0 0 11.314 0l10.343-10.344 10.343 10.344a8 8 0 0 0 11.314 0l10.343-10.344 10.343 10.344a8 8 0 0 0 11.314 0l10.343-10.344 10.343 10.344a8 8 0 0 0 11.314 0l10.343-10.344 10.343 10.344a8 8 0 0 0 11.314 0l10.343-10.344 10.343 10.344a8 8 0 0 0 11.314 0l10.343-10.344 8 8z"/><path d="m176 208h112a8 8 0 0 0 0-16h-112a8 8 0 0 0 0 16z"/><path d="m336 192h-16a8 8 0 0 0 0 16h16a8 8 0 0 0 0-16z"/><path d="m176 240h112a8 8 0 0 0 0-16h-112a8 8 0 0 0 0 16z"/><path d="m336 224h-16a8 8 0 0 0 0 16h16a8 8 0 0 0 0-16z"/><path d="m176 272h112a8 8 0 0 0 0-16h-112a8 8 0 0 0 0 16z"/><path d="m336 256h-16a8 8 0 0 0 0 16h16a8 8 0 0 0 0-16z"/><path d="m176 304h112a8 8 0 0 0 0-16h-112a8 8 0 0 0 0 16z"/><path d="m336 288h-16a8 8 0 0 0 0 16h16a8 8 0 0 0 0-16z"/><path d="m176 336h112a8 8 0 0 0 0-16h-112a8 8 0 0 0 0 16z"/><path d="m336 320h-16a8 8 0 0 0 0 16h16a8 8 0 0 0 0-16z"/><path d="m336 352h-160a8 8 0 0 0 0 16h160a8 8 0 0 0 0-16z"/><path d="m224 392a8 8 0 0 0 -8-8h-40a8 8 0 0 0 0 16h40a8 8 0 0 0 8-8z"/><path d="m336 384h-16a8 8 0 0 0 0 16h16a8 8 0 0 0 0-16z"/><path d="m288 424h-64a8 8 0 0 0 0 16h64a8 8 0 0 0 0-16z"/><path d="m176 136h80a8 8 0 0 0 8-8v-32a8 8 0 0 0 -8-8h-80a8 8 0 0 0 -8 8v32a8 8 0 0 0 8 8zm8-32h64v16h-64z"/><path d="m176 168h32a8 8 0 0 0 0-16h-32a8 8 0 0 0 0 16z"/><path d="m320 96a8.009 8.009 0 0 1 8 8 8 8 0 0 0 16 0 24.039 24.039 0 0 0 -16-22.624v-1.376a8 8 0 0 0 -16 0v1.376a24 24 0 0 0 8 46.624 8 8 0 1 1 -8 8 8 8 0 0 0 -16 0 24.039 24.039 0 0 0 16 22.624v1.376a8 8 0 0 0 16 0v-1.376a24 24 0 0 0 -8-46.624 8 8 0 0 1 0-16z"/></svg>