<svg id="Capa_1" enable-background="new 0 0 512 512" height="512" viewBox="0 0 512 512" width="512" xmlns="http://www.w3.org/2000/svg"><g><g><path d="m88.806 271.279 11.346-68.013 20.833-57.038c4.616-12.637-3.382-26.36-16.652-28.574-10.215-1.704-20.193 4.119-23.734 13.851l-23.704 65.151-11.247 67.424z" fill="#a34f41"/><path d="m81.83 237.995v-68.953l11.164-59.688c2.474-13.224-7.673-25.444-21.126-25.444-10.356 0-19.24 7.386-21.131 17.568l-12.661 68.162v68.355z" fill="#ba5d4f"/><path d="m92.101 457.735v-19.27c0-8.123-2.957-15.968-8.318-22.07l-65.209-74.219c-7.138-8.123-11.074-18.567-11.074-29.381v-128.542l12.661-68.163c1.891-10.182 10.775-17.568 21.131-17.568 13.454 0 23.6 12.22 21.126 25.444l-11.164 59.689v85.229l84.972 84.972 62.558 23.359v80.52z" fill="#c86f5c"/><path d="m92.219 258.365 9.221-47.23c2.657-13.609-6.819-26.605-20.588-28.237-11.55-1.369-22.401 5.798-25.676 16.958l-17.911 61.031c-2.563 8.183-1.237 17.089 3.599 24.171l70.846 103.748h87.074v-21.455c0-58.284-106.565-108.986-106.565-108.986z" fill="#c86f5c"/><path d="m92.22 258.37 9.22-47.23c2.66-13.61-6.82-26.61-20.59-28.24-.95-.11-1.89-.17-2.82-.17-9.06 0-17.32 5.17-21.32 13.21 10.85 3.87 17.68 15.21 15.37 27.02l-7.399 37.901c-1.063 5.447 1.55 10.948 6.449 13.555 25.034 13.322 98.29 56.433 98.29 104.754v78.57h29.36v-90.39c0-58.28-106.56-108.98-106.56-108.98z" fill="#ba5d4f"/></g><g><path d="m423.194 271.279-11.346-68.013-20.833-57.038c-4.616-12.637 3.382-26.36 16.652-28.574 10.215-1.704 20.193 4.119 23.734 13.851l23.704 65.151 11.247 67.424z" fill="#a34f41"/><path d="m430.17 237.995v-68.953l-11.164-59.688c-2.474-13.224 7.673-25.444 21.126-25.444 10.356 0 19.24 7.386 21.131 17.568l12.661 68.163v68.355h-43.754z" fill="#ba5d4f"/><path d="m419.899 457.735v-19.27c0-8.123 2.957-15.968 8.318-22.07l65.209-74.219c7.138-8.124 11.074-18.568 11.074-29.382v-128.541l-12.661-68.163c-1.891-10.182-10.775-17.568-21.131-17.568-13.454 0-23.6 12.22-21.126 25.444l11.164 59.689v85.229l-84.972 84.972-62.558 23.359v80.52z" fill="#c86f5c"/><path d="m504.5 184.25v128.54c0 10.82-3.94 21.26-11.07 29.39l-65.21 74.22c-5.36 6.1-8.32 13.94-8.32 22.07v19.27h-26.24v-19.27c0-8.13 2.96-15.97 8.32-22.07l65.21-74.22c7.14-8.13 11.07-18.57 11.07-29.39v-128.54l-12.66-68.16c-1-5.37-3.94-9.96-8.02-13.1 3.6-2.79 8.14-4.47 13.13-4.47 10.35 0 19.24 7.39 21.13 17.57z" fill="#ba5d4f"/><path d="m419.781 258.365-9.221-47.23c-2.657-13.609 6.819-26.605 20.588-28.237 11.55-1.369 22.401 5.798 25.676 16.958l17.911 61.031c2.563 8.183 1.237 17.089-3.599 24.171l-70.846 103.746h-87.074v-21.455c0-58.282 106.565-108.984 106.565-108.984z" fill="#c86f5c"/></g><g><g><path d="m164.424 218.282-.635.635s10.232 63.693 132.028 63.693v-79.809h9.148c23.325 0 42.234-18.909 42.234-42.234v-38.51c0-5.646-4.577-10.223-10.223-10.223h-30.557v-10.147c0-26.19-21.231-47.422-47.422-47.422h-46.663z" fill="#fcb44d"/><path d="m336.98 111.83h-28.73c5.65 0 10.23 4.58 10.23 10.23v38.51c0 23.32-18.91 42.23-42.24 42.23h-13.1v-125.35c0-8.53-2.48-16.49-6.77-23.19h-44.04l-47.91 164.02-.63.64s4.72 29.36 45.86 48.21c22.551-2.226 41.429-17.118 49.408-37.444 1.22-3.108 5.371-3.651 7.266-.902l.036.053c.475.689.729 1.506.729 2.343v50.12c8.81.85 18.37 1.31 28.73 1.31v-79.81h9.15c23.323 0 42.23-18.907 42.23-42.23v-38.51c.001-5.65-4.579-10.23-10.219-10.23z" fill="#fca62f"/></g><g><path d="m300.586 264.002c-44.866 0-82.752-9.404-109.562-27.195-8.164-5.417-14.155-10.861-18.382-15.399-4.531-4.864-12.397-4.211-16.052 1.341-2.908 4.417-5.769 8.864-8.591 13.336-2.544 4.032-1.994 9.294 1.373 12.669 21.612 21.662 66.385 50.904 150.675 51.029 10.098.015 18.65-8.2 18.426-18.295-.216-9.694-8.141-17.486-17.887-17.486z" fill="#fb5532"/></g><g><path d="m318.47 281.49c.23 10.09-8.33 18.31-18.42 18.29-8.26-.01-16.14-.3-23.65-.84 7.87-2.4 13.74-9.67 13.55-18.24-.19-8.64-6.25-15.82-14.35-17.73 8.06.69 16.4 1.03 24.99 1.03 9.74 0 17.67 7.79 17.88 17.49z" fill="#ec462e"/></g><g><path d="m203.782 247.417c-21.737 0-39.358-17.621-39.358-39.358v-114.752c0-21.563 17.48-39.042 39.042-39.042h16.49c12.804 0 23.184 10.38 23.184 23.184v130.611c0 21.736-17.621 39.357-39.358 39.357z" fill="#fcc16d"/><path d="m243.14 77.45v130.61c0 21.74-17.62 39.36-39.36 39.36-5.43 0-10.61-1.1-15.32-3.09 14.12-5.98 24.03-19.97 24.03-36.27v-130.61c0-10.69-7.22-19.68-17.06-22.36 2.59-.54 5.28-.83 8.04-.83h16.49c12.8 0 23.18 10.38 23.18 23.19z" fill="#fcb44d"/><g><path d="m108.894 201.138 19.136-52.337c2.968-8.125 2.172-17.072-2.184-24.545-4.355-7.474-11.747-12.576-20.279-14-1.685-.281-3.378-.393-5.065-.377 1.289-8.228-.987-16.565-6.328-22.997-5.525-6.655-13.656-10.472-22.306-10.472-10.63 0-20.391 5.926-25.421 15.079-1.686-.303-3.409-.466-5.155-.466-13.967 0-25.955 9.967-28.505 23.698l-12.661 68.162c-.084.452-.126.91-.126 1.37v128.542c0 12.642 4.595 24.834 12.939 34.332l65.209 74.22c4.161 4.735 6.452 10.815 6.452 17.12v19.27c0 4.142 3.358 7.5 7.5 7.5s7.5-3.358 7.5-7.5v-19.27c0-9.951-3.617-19.547-10.184-27.021l-65.208-74.219c-5.938-6.759-9.208-15.436-9.208-24.432v-127.852l12.535-67.483c1.23-6.627 7.017-11.438 13.757-11.438 4.175 0 8.099 1.842 10.766 5.054s3.756 7.408 2.989 11.511l-11.165 59.688c-.085.455-.128.917-.128 1.379v27.828c0 .189.015.375.028.561l-13.696 46.667c-3.242 10.42-1.573 21.56 4.583 30.574l50.379 73.776c2.335 3.42 7.001 4.3 10.423 1.964 3.42-2.336 4.3-7.002 1.964-10.423l-50.379-73.776c-3.563-5.218-4.524-11.669-2.635-17.699.014-.043.026-.086.039-.13l17.911-61.03c2.253-7.676 9.651-12.565 17.597-11.623 4.564.541 8.569 2.885 11.277 6.599 2.708 3.713 3.713 8.243 2.833 12.753l-9.221 47.23c-.656 3.359 1.047 6.737 4.137 8.208.262.125 26.451 12.684 52.194 32.005 22.853 17.152 50.095 43.256 50.095 70.208v90.386c0 4.142 3.358 7.5 7.5 7.5s7.5-3.358 7.5-7.5v-90.382c0-55.181-83.398-101.73-105.61-113.148l8.127-41.629c.743-3.803.756-7.681.094-11.435zm-49.594-19.706 10.491-56.086c1.59-8.502-.667-17.196-6.192-23.851-1.084-1.306-2.272-2.498-3.541-3.578 2.532-3.975 6.984-6.507 11.811-6.507 4.175 0 8.099 1.842 10.766 5.054s3.756 7.408 2.989 11.511l-11.165 59.688c-.085.455-.128.917-.128 1.379v6.404c-5.525.647-10.69 2.746-15.031 5.986zm30.03-4.085v-7.609l8.326-44.513c1.775-.41 3.618-.477 5.443-.172 4.118.687 7.685 3.149 9.787 6.756s2.486 7.925 1.054 11.846l-14.592 39.949c-2.916-2.7-6.32-4.825-10.018-6.257z"/><path d="m403.085 201.133c-.657 3.745-.626 7.647.114 11.439l8.127 41.629c-22.212 11.418-105.61 57.967-105.61 113.148v15.75c0 4.142 3.358 7.5 7.5 7.5s7.5-3.358 7.5-7.5v-15.75c0-26.952 27.242-53.055 50.095-70.208 25.743-19.321 51.933-31.88 52.194-32.005 3.089-1.472 4.792-4.85 4.137-8.208l-9.221-47.231c-.88-4.51.125-9.04 2.833-12.753 2.708-3.714 6.713-6.058 11.277-6.599 7.942-.939 15.344 3.946 17.597 11.622l17.911 61.031c.013.043.026.087.039.13 1.889 6.03.928 12.481-2.635 17.699l-50.379 73.776c-2.335 3.421-1.456 8.087 1.964 10.423 3.421 2.335 8.087 1.456 10.423-1.964l50.379-73.776c6.156-9.015 7.825-20.154 4.583-30.574l-13.678-46.61c.002-.073.011-.144.011-.218v-28.229c0-.462-.043-.924-.128-1.379l-11.165-59.688c-.768-4.104.322-8.299 2.989-11.511s6.591-5.054 10.766-5.054c6.741 0 12.527 4.81 13.757 11.438l12.535 67.482v127.852c0 8.996-3.27 17.673-9.208 24.431l-65.208 74.219c-6.568 7.474-10.185 17.07-10.185 27.021v19.27c0 4.142 3.358 7.5 7.5 7.5s7.5-3.358 7.5-7.5v-19.27c0-6.305 2.292-12.384 6.453-17.12l65.208-74.219c8.344-9.497 12.939-21.69 12.939-34.332v-128.542c0-.459-.042-.918-.126-1.37l-12.661-68.163c-2.55-13.731-14.539-23.698-28.505-23.698-1.746 0-3.469.163-5.155.466-5.03-9.153-14.791-15.079-25.421-15.079-8.65 0-16.781 3.817-22.306 10.472-5.341 6.433-7.617 14.769-6.328 22.997-1.687-.016-3.38.097-5.065.377-8.532 1.423-15.923 6.526-20.279 14s-5.152 16.42-2.184 24.545zm9.567-17.53-14.592-39.949c-1.433-3.921-1.048-8.239 1.054-11.846s5.669-6.07 9.787-6.756c1.824-.304 3.668-.237 5.443.172l8.326 44.513v7.609c-3.698 1.433-7.102 3.558-10.018 6.257zm25.018-8.155v-6.406c0-.462-.043-.924-.128-1.379l-11.165-59.688c-.768-4.104.322-8.299 2.989-11.511s6.591-5.054 10.766-5.054c4.827 0 9.279 2.532 11.811 6.507-1.269 1.08-2.457 2.272-3.541 3.578-5.526 6.655-7.783 15.349-6.192 23.851l10.491 56.09c-4.342-3.24-9.508-5.339-15.031-5.988z"/><path d="m313.216 411.527c-4.142 0-7.5 3.358-7.5 7.5v38.708c0 4.142 3.358 7.5 7.5 7.5s7.5-3.358 7.5-7.5v-38.708c0-4.142-3.358-7.5-7.5-7.5z"/><path d="m325.971 281.32c-.284-12.763-10.21-23.303-22.653-24.666v-46.354h1.648c27.424 0 49.734-22.311 49.734-49.734v-38.51c0-9.772-7.951-17.723-17.723-17.723h-23.058v-2.647c0-30.284-24.638-54.921-54.921-54.921h-55.531c-25.664 0-46.542 20.879-46.542 46.542v114.751c0 1.508.078 2.999.219 4.471-2.724 1.373-5.075 3.449-6.818 6.096-2.855 4.337-5.771 8.865-8.668 13.457-4.452 7.052-3.462 16.086 2.406 21.969 14.569 14.603 41.087 34.281 84.68 45.098.606.15 1.214.223 1.812.223 3.365 0 6.426-2.282 7.273-5.696.998-4.02-1.453-8.088-5.473-9.085-40.241-9.985-64.45-27.88-77.672-41.134-.89-.892-1.03-2.277-.34-3.37 2.457-3.894 4.924-7.731 7.356-11.447 7.634 15.547 23.627 26.277 42.084 26.277 1.568 0 3.118-.081 4.647-.232 25.548 11.153 56.54 16.817 92.158 16.817 5.604 0 10.264 4.554 10.388 10.152.06 2.686-.989 5.269-2.952 7.273-2.089 2.133-4.986 3.355-7.95 3.355-.005 0-.011 0-.016 0-11.506-.017-22.754-.603-33.431-1.74-4.107-.441-7.813 2.544-8.252 6.664-.438 4.119 2.544 7.813 6.664 8.252 11.195 1.192 22.97 1.807 34.998 1.824h.037c6.971 0 13.773-2.863 18.667-7.859 4.811-4.914 7.379-11.343 7.229-18.103zm-82.831-138.964c-4.142 0-7.5 3.358-7.5 7.5v58.203c0 17.566-14.292 31.858-31.858 31.858s-31.858-14.292-31.858-31.858v-114.752c0-17.393 14.15-31.542 31.542-31.542h16.49c8.648 0 15.684 7.036 15.684 15.684v36.481c0 4.142 3.358 7.5 7.5 7.5s7.5-3.358 7.5-7.5v-36.482c0-5.727-1.582-11.091-4.325-15.684h12.683c22.013 0 39.921 17.909 39.921 39.921v10.147c0 4.142 3.358 7.5 7.5 7.5h30.558c1.501 0 2.723 1.222 2.723 2.723v38.51c0 19.153-15.582 34.734-34.734 34.734h-9.148c-.34 0-27.677 0-27.677 0-4.142 0-7.5 3.358-7.5 7.5s3.358 7.5 7.5 7.5h20.177v45.948c-21.314-.886-40.994-4.112-58.162-9.483 12.356-8.446 20.484-22.643 20.484-38.707v-58.203c0-4.14-3.358-7.498-7.5-7.498z"/></g></g></g></g></svg>