<svg height="512" viewBox="0 0 64 64" width="512" xmlns="http://www.w3.org/2000/svg"><path d="m61 9v50a2.006 2.006 0 0 1 -2 2h-54a2.006 2.006 0 0 1 -2-2v-50zm-4 48v-10h-12v10zm0-17v-10h-12v10zm0-17v-10h-12v10zm-16 34v-36l-8-8h-26v44z" fill="#57a4ff"/><g fill="#ffeb99"><path d="m61 5v4h-58v-4a2.006 2.006 0 0 1 2-2h54a2.006 2.006 0 0 1 2 2z"/><path d="m45 47h12v10h-12z"/><path d="m45 30h12v10h-12z"/><path d="m45 13h12v10h-12z"/></g><path d="m41 21v36h-34v-44h26v8zm-20 32v-8h-10v8zm0-12v-8h-10v8zm0-12v-1a4.985 4.985 0 0 0 -5-5 3 3 0 1 0 -3-3 3 3 0 0 0 3 3 5 5 0 0 0 -5 5v1z" fill="#00d7df"/><path d="m41 21h-8v-8z" fill="#009698"/><path d="m11 45h10v8h-10z" fill="#ffeb99"/><path d="m11 33h10v8h-10z" fill="#ffeb99"/><path d="m21 28v1h-10v-1a5 5 0 1 1 10 0z" fill="#ffdaaa"/><circle cx="16" cy="20" fill="#ffdaaa" r="3"/><path d="m59 2h-54a3 3 0 0 0 -3 3v54a3 3 0 0 0 3 3h54a3 3 0 0 0 3-3v-54a3 3 0 0 0 -3-3zm-54 2h54a1 1 0 0 1 1 1v3h-56v-3a1 1 0 0 1 1-1zm54 56h-54a1 1 0 0 1 -1-1v-49h56v49a1 1 0 0 1 -1 1z"/><path d="m6 5h2v2h-2z"/><path d="m10 5h2v2h-2z"/><path d="m14 5h2v2h-2z"/><path d="m41.707 20.293-8-8a.991.991 0 0 0 -.707-.284v-.009h-26a1 1 0 0 0 -1 1v44a1 1 0 0 0 1 1h34a1 1 0 0 0 1-1v-36h-.009a1 1 0 0 0 -.284-.707zm-7.707-4.879 4.586 4.586h-4.586zm-26 40.586v-42h24v7a1 1 0 0 0 1 1h7v34z"/><path d="m18.893 22.747a4 4 0 1 0 -5.786 0 6 6 0 0 0 -3.107 5.253v1a1 1 0 0 0 1 1h10a1 1 0 0 0 1-1v-1a6 6 0 0 0 -3.107-5.253zm-4.893-2.747a2 2 0 1 1 2 2 2 2 0 0 1 -2-2zm-2 8a4 4 0 0 1 8 0z"/><path d="m21 32h-10a1 1 0 0 0 -1 1v8a1 1 0 0 0 1 1h10a1 1 0 0 0 1-1v-8a1 1 0 0 0 -1-1zm-1 8h-8v-6h8z"/><path d="m21 44h-10a1 1 0 0 0 -1 1v8a1 1 0 0 0 1 1h10a1 1 0 0 0 1-1v-8a1 1 0 0 0 -1-1zm-1 8h-8v-6h8z"/><path d="m24 34h2v2h-2z"/><path d="m28 34h10v2h-10z"/><path d="m24 38h2v2h-2z"/><path d="m28 38h10v2h-10z"/><path d="m24 46h2v2h-2z"/><path d="m28 46h10v2h-10z"/><path d="m24 50h2v2h-2z"/><path d="m28 50h10v2h-10z"/><path d="m24 28h2v2h-2z"/><path d="m28 28h10v2h-10z"/><path d="m24 24h2v2h-2z"/><path d="m28 24h10v2h-10z"/><path d="m24 20h2v2h-2z"/><path d="m28 20h2v2h-2z"/><path d="m57 12h-12a1 1 0 0 0 -1 1v10a1 1 0 0 0 1 1h12a1 1 0 0 0 1-1v-10a1 1 0 0 0 -1-1zm-1 10h-10v-8h10z"/><path d="m57 29h-12a1 1 0 0 0 -1 1v10a1 1 0 0 0 1 1h12a1 1 0 0 0 1-1v-10a1 1 0 0 0 -1-1zm-1 10h-10v-8h10z"/><path d="m57 46h-12a1 1 0 0 0 -1 1v10a1 1 0 0 0 1 1h12a1 1 0 0 0 1-1v-10a1 1 0 0 0 -1-1zm-1 10h-10v-8h10z"/></svg>