<?xml version="1.0"?>
<svg xmlns="http://www.w3.org/2000/svg" viewBox="0 0 64 64" width="512" height="512"><g id="Filled_outline" data-name="Filled outline"><path d="M32,43A12,12,0,0,0,20,31H3V46l5,5v6H6.084A2.048,2.048,0,0,0,4.1,58.348,2.007,2.007,0,0,0,6,61h7l2-10-1-4,5.988,2A4.1,4.1,0,0,0,19,53l2,4H18.084A2.048,2.048,0,0,0,16.1,58.348,2.007,2.007,0,0,0,18,61H32l-2-4,2-2Z" style="fill:#aabece"/><path d="M26,20V14L20,5H3V31H21l4-2a2.843,2.843,0,0,0,2-3Z" style="fill:#7d8d9c"/><path d="M32,51v4h5.318c2.6,0,3.807-1.923,2.574-4.216C37.841,46.968,32,51,32,51Z" style="fill:#394d5c"/><path d="M20,5l3.981-1.919s3.984-.993,4.984,3.971a18.169,18.169,0,0,0,1.9,5.449.989.989,0,0,1-.786,1.5H26Z" style="fill:#394d5c"/><path d="M19.986,19l-2-2L16,21H11.962l-2-4-2,2a14.335,14.335,0,0,0-2.953,5.04C4.753,25.59,6.4,27,7.974,27h0c4,0,6-1,6-4,0,3,2,4,6,4h0c1.572,0,3.256-1.449,3-3A14.718,14.718,0,0,0,19.986,19Z" style="fill:#ffd782"/><polygon points="9.962 17 11.962 21 16 21 17.986 17 9.962 17" style="fill:#394d5c"/><rect x="34.222" y="18.464" width="15.556" height="7.071" transform="translate(-3.255 36.142) rotate(-45)" style="fill:#50b4f8"/><polygon points="34 25 32 29 35 32 39 30 34 25" style="fill:#50b4f8"/><rect x="46.879" y="8.636" width="4.243" height="12.728" transform="translate(3.745 39.042) rotate(-45)" style="fill:#2d75bb"/><polygon points="40 19 50 19 39 30 34 25 40 19" style="fill:#fcf05a"/><rect x="49.672" y="9.379" width="5.657" height="4.243" transform="translate(7.245 40.491) rotate(-45)" style="fill:#50b4f8"/><rect x="53.879" y="3.05" width="4.243" height="9.899" transform="translate(10.745 41.941) rotate(-45)" style="fill:#2d75bb"/><path d="M6.989,10l.027,2c.257,0,2.584-.1,4.816-3.445l-1.664-1.11C8.54,9.888,7.052,10,6.989,10Z"/><rect x="8" y="12" width="2" height="2"/><path d="M16.813,7.445l-1.664,1.11A7.442,7.442,0,0,0,20.981,12V10A5.443,5.443,0,0,1,16.813,7.445Z"/><rect x="17" y="12" width="2" height="2"/><path d="M7,51.414V56H6.084A3.057,3.057,0,0,0,3.15,58.046,3.006,3.006,0,0,0,6,62h7a1,1,0,0,0,.98-.8l2-10a.986.986,0,0,0-.01-.439l-.558-2.231,2.979.995a5.124,5.124,0,0,0-.372,3.754,1.057,1.057,0,0,0,.067.172L19.362,56H18.084a3.057,3.057,0,0,0-2.934,2.046A3.006,3.006,0,0,0,18,62H32a1,1,0,0,0,.9-1.447L31.217,57.2l1.2-1.2h4.9a4.013,4.013,0,0,0,3.6-1.758,4.308,4.308,0,0,0-2.727-5.971A8.118,8.118,0,0,0,33,49.265V43a12.916,12.916,0,0,0-2.694-7.892L33.5,31.914l.793.793A1,1,0,0,0,35,33a1.011,1.011,0,0,0,.447-.1l4-2a1.917,1.917,0,0,0,.26-.188L50,20.414l1.293,1.293a1,1,0,0,0,1.414,0l3-3a1,1,0,0,0,0-1.414L53.414,15,56,12.414l1.293,1.293a1,1,0,0,0,1.414,0l3-3a1,1,0,0,0,0-1.414l-7-7a1,1,0,0,0-1.414,0l-3,3a1,1,0,0,0,0,1.414L51.586,8,49,10.586,46.707,8.293a1,1,0,0,0-1.414,0l-3,3a1,1,0,0,0,0,1.414L43.586,14,33.293,24.293a1.917,1.917,0,0,0-.188.26l-2,4a1,1,0,0,0,.188,1.154l.793.793-3.115,3.115a12.99,12.99,0,0,0-4.992-2.987l1.424-.711a3.856,3.856,0,0,0,2.583-4.082L27,19.917V15h3.081a1.9,1.9,0,0,0,1.649-.969,2.037,2.037,0,0,0,0-2.027,17.215,17.215,0,0,1-1.789-5.15A6,6,0,0,0,27.44,2.741a5.125,5.125,0,0,0-3.7-.63.936.936,0,0,0-.192.069L19.772,4H3A1,1,0,0,0,2,5V46a1,1,0,0,0,.293.707Zm26,.132c1.1-.664,3.24-1.691,4.72-1.332a1.916,1.916,0,0,1,1.291,1.043,2,2,0,0,1,.189,1.958A2.1,2.1,0,0,1,37.318,54H33ZM54,4.414,59.586,10,58,11.586,52.414,6Zm-1,5L54.586,11,52,13.586,50.414,12Zm-7,1L53.586,18,52,19.586,44.414,12Zm-1,5L47.586,18H42.414ZM40.414,20h7.172L45,22.586l-1.293-1.293-1.414,1.414L43.586,24,42,25.586l-1.293-1.293-1.414,1.414L40.586,27,39,28.586,35.414,25Zm-6.14,6.688,3.038,3.038L35.2,30.783l-1.98-1.98ZM24.3,4.038a3.106,3.106,0,0,1,2.091.406A4.129,4.129,0,0,1,27.985,7.25a17.307,17.307,0,0,0,2.1,5.75H26.535L21.47,5.4ZM4,24.625a3.359,3.359,0,0,0,.814,1.881A4.271,4.271,0,0,0,7.974,28c2.222,0,4.669-.264,6-1.837,1.332,1.573,3.778,1.837,6,1.837a4.308,4.308,0,0,0,3.182-1.519,3.247,3.247,0,0,0,.8-2.644,1.14,1.14,0,0,0-.038-.153,15.645,15.645,0,0,0-3.23-5.391l-2-2a1,1,0,0,0-.7-.3H9.962a1,1,0,0,0-.7.3l-2,2a15.258,15.258,0,0,0-3.2,5.442.984.984,0,0,0-.034.14A2.941,2.941,0,0,0,4,24.336V6H19.465L25,14.3V20a.919.919,0,0,0,.014.165l.994,5.959a1.866,1.866,0,0,1-1.359,1.939q-.05.02-.1.042L20.764,30H4ZM11.962,22H16a1,1,0,0,0,.9-.555l1.367-2.754L19.277,19.7A13.655,13.655,0,0,1,22,24.234a1.375,1.375,0,0,1-.365.953A2.325,2.325,0,0,1,19.974,26c-4.618,0-5-1.419-5-3a1,1,0,0,0-2,0c0,1.581-.382,3-5,3a2.28,2.28,0,0,1-1.635-.789,1.3,1.3,0,0,1-.352-.943,13.2,13.2,0,0,1,2.682-4.561l1.019-1.019,1.38,2.759A1,1,0,0,0,11.962,22Zm-.381-4h4.792l-.993,2h-2.8ZM4,32H20a10.954,10.954,0,0,1,7.558,3.028l-2.614,2.614A5.042,5.042,0,0,1,24,34.994L23,35H22c0,2.022,1.429,6.085,6.835,6.986l.33-1.972a7.291,7.291,0,0,1-2.758-1.007l2.473-2.473A10.929,10.929,0,0,1,31,43V54.586l-1.707,1.707a1,1,0,0,0-.188,1.154L30.382,60H18a.989.989,0,0,1-.808-.411,1.021,1.021,0,0,1-.136-.939A1.061,1.061,0,0,1,18.084,58H26V56H21.6l-1.68-3.358a3.122,3.122,0,0,1,.857-3.04,2.79,2.79,0,0,1,2.825-.674L27.533,50.9l.895-1.79-4-2a1.062,1.062,0,0,0-.131-.054,4.78,4.78,0,0,0-4.553.813l-5.427-1.813a1,1,0,0,0-1.287,1.192l.945,3.781L12.18,60H6a.989.989,0,0,1-.808-.411,1.021,1.021,0,0,1-.136-.939A1.061,1.061,0,0,1,6.084,58H8a1,1,0,0,0,1-1V51a1,1,0,0,0-.293-.707L4,45.586Z"/></g></svg>
