<svg id="Layer_3" enable-background="new 0 0 64 64" height="512" viewBox="0 0 64 64" width="512" xmlns="http://www.w3.org/2000/svg"><circle cx="28" cy="36" fill="#fcc062" r="4"/><ellipse cx="26.5" cy="36" fill="#fdd089" rx="2.5" ry="3.703"/><path d="m31 40h27v-3l-16-3-11 2z" fill="#fdd089"/><path d="m2 16h12v42h-12z" fill="#868992"/><path d="m2 16h9v42h-9z" fill="#b3b6c2"/><path d="m14 20h6v34h-6z" fill="#868992"/><path d="m14 20h3v34h-3z" fill="#b3b6c2"/><path d="m2 58h60v4h-60z" fill="#868992"/><path d="m2 58h57v4h-57z" fill="#b3b6c2"/><path d="m42 48h4v10h-4z" fill="#b3b6c2"/><path d="m50 44h-30v4h26c2.209 0 4-1.791 4-4z" fill="#65676e"/><path d="m47 44h-27v4h23c2.209 0 4-1.791 4-4z" fill="#868992"/><path d="m60 44h-40v-4h40c1.105 0 2 .895 2 2 0 1.105-.895 2-2 2z" fill="#868992"/><path d="m59 42c0-1.105-.895-2-2-2h-37v4h37c1.105 0 2-.895 2-2z" fill="#b3b6c2"/><path d="m26 2h36v24h-36z" fill="#b3b6c2"/><path d="m30 6h28v16h-28z" fill="#5f9747"/><path d="m30 6h25v16h-25z" fill="#7ec95f"/><path d="m15 58h-2v-41h-10v41h-2v-42c0-.552.448-1 1-1h12c.552 0 1 .448 1 1z"/><path d="m20 55h-6v-2h5v-32h-5v-2h6c.552 0 1 .448 1 1v34c0 .553-.448 1-1 1z"/><path d="m60 45h-40c-.552 0-1-.447-1-1v-4c0-.553.448-1 1-1h40c1.654 0 3 1.346 3 3s-1.346 3-3 3zm-39-2h39c.551 0 1-.448 1-1s-.449-1-1-1h-39z"/><path d="m46 49h-26v-2h26c1.654 0 3-1.346 3-3h2c0 2.757-2.243 5-5 5z"/><path d="m59 40h-2v-2.17l-14.994-2.812-9.81 1.962-.393-1.961 10-2c.125-.025.255-.026.38-.002l16 3c.474.088.817.502.817.983z"/><path d="m28 41c-2.757 0-5-2.243-5-5s2.243-5 5-5 5 2.243 5 5-2.243 5-5 5zm0-8c-1.654 0-3 1.346-3 3s1.346 3 3 3 3-1.346 3-3-1.346-3-3-3z"/><path d="m5 19h2v2h-2z"/><path d="m9 19h2v2h-2z"/><path d="m5 23h2v2h-2z"/><path d="m9 23h2v2h-2z"/><path d="m2 51h12v2h-12z"/><path d="m45 48h2v10h-2z"/><path d="m41 48h2v10h-2z"/><path d="m62 63h-60c-.552 0-1-.447-1-1v-4c0-.553.448-1 1-1h60c.552 0 1 .447 1 1v4c0 .553-.448 1-1 1zm-59-2h58v-2h-58z"/><path d="m62 27h-36c-.552 0-1-.448-1-1v-24c0-.552.448-1 1-1h36c.552 0 1 .448 1 1v24c0 .552-.448 1-1 1zm-35-2h34v-22h-34z"/><path d="m58 23h-28c-.552 0-1-.448-1-1v-16c0-.552.448-1 1-1h28c.552 0 1 .448 1 1v16c0 .552-.448 1-1 1zm-27-2h26v-14h-26z"/><path d="m43 19c-.006 0-.012 0-.019 0-.423-.008-.796-.282-.93-.684l-1.236-3.71-.92 1.841c-.17.339-.516.553-.895.553h-4v-2h3.382l1.724-3.447c.181-.362.566-.574.965-.55.403.029.75.298.878.681l1.107 3.32 2.008-5.355c.148-.396.498-.649.955-.649.423.008.796.282.93.684l1.772 5.316h4.279v2h-5c-.431 0-.812-.275-.949-.684l-1.107-3.32-2.008 5.355c-.146.391-.52.649-.936.649z"/></svg>